<svg width="12" height="12" viewBox="0 0 12 12" fill="none" xmlns="http://www.w3.org/2000/svg">
<g clip-path="url(#clip0)">
<path d="M6.4885 0.969325C6.62422 0.789438 6.6024 0.407889 6.58308 0.0713118C6.58235 0.056804 6.58153 0.0426153 6.58072 0.0282056C6.39048 0.0100401 6.1979 0 6.00299 0C5.25612 0 4.54149 0.137591 3.88191 0.387023C4.35242 0.613134 5.08073 1.00232 5.89027 1.57735C6.16648 1.33966 6.37479 1.12022 6.4885 0.969325Z" fill="#F9F9F9"/>
<path d="M9.52862 4.39301C9.23289 4.42642 8.98348 4.47496 8.77019 4.54303C9.78984 6.3233 10.1874 8.57246 10.2847 10.2019C11.2948 9.17264 11.9363 7.78123 11.997 6.24001C11.301 5.38446 10.3789 4.29656 9.52862 4.39301Z" fill="#F9F9F9"/>
<path d="M3.46696 2.8563C4.18339 2.70722 4.85647 2.34664 5.39314 1.96602C4.27355 1.19492 3.33975 0.794739 3.15399 0.718567C1.99246 1.34648 1.06297 2.34693 0.522232 3.55913C1.22509 3.27909 1.9863 3.13661 2.73395 2.9978C2.97583 2.95287 3.22585 2.90645 3.46696 2.8563Z" fill="#F9F9F9"/>
<path d="M7.61407 3.03076C7.67802 3.09503 7.7418 3.1604 7.80513 3.227C8.03885 3.47235 8.25092 3.74071 8.44539 4.02463C8.7286 3.9177 9.06201 3.84187 9.46111 3.79675C10.4015 3.69039 11.2376 4.4353 11.9553 5.25539C11.8014 4.01216 11.2682 2.88696 10.4737 1.99957C10.04 2.05184 9.55657 2.14038 9.0638 2.28742C8.74055 2.38397 8.22576 2.64629 7.61407 3.03076Z" fill="#F9F9F9"/>
<path d="M6.82461 6.1293C7.0707 5.29577 7.35575 4.69491 7.90803 4.30489C7.74229 4.06695 7.56392 3.84364 7.3707 3.64077C7.28132 3.5469 7.19094 3.45625 7.10016 3.36719C4.88439 4.87539 1.8492 7.6459 1.57321 10.0463C2.4945 11.0543 3.75533 11.7456 5.17469 11.9417C5.6915 10.9128 6.17792 8.82108 6.46704 7.57706C6.60596 6.97954 6.72585 6.46362 6.82461 6.1293Z" fill="#F9F9F9"/>
<path d="M4.31231 4.80752C5.08488 4.0956 5.90076 3.45721 6.64699 2.94413C6.39825 2.72406 6.14874 2.52119 5.9038 2.33514C5.28399 2.80106 4.47248 3.25996 3.58915 3.44368C3.34178 3.49516 3.08847 3.54222 2.84358 3.58768C1.9 3.7629 0.994234 3.9326 0.232511 4.3576C0.0841675 4.87976 0.0030365 5.43027 0.0030365 5.99998C0.0030365 7.27444 0.401646 8.45527 1.07919 9.42697C1.51814 7.68905 3.02371 5.99493 4.31231 4.80752Z" fill="#F9F9F9"/>
<path d="M7.16383 2.60148C7.87764 2.14641 8.49304 1.83175 8.89231 1.71257C9.25086 1.60549 9.60259 1.5275 9.93565 1.47063C9.166 0.801817 8.22519 0.325145 7.18661 0.117371C7.20964 0.536404 7.21968 0.996458 6.9676 1.3307C6.84783 1.48943 6.64521 1.70712 6.38156 1.9433C6.63976 2.14427 6.90215 2.36344 7.16383 2.60148Z" fill="#F9F9F9"/>
<path d="M7.4 6.29919C7.30633 6.61655 7.18815 7.12462 7.05145 7.71286C6.64778 9.44975 6.26152 11.0039 5.81042 11.9951C5.87447 11.9971 5.93849 11.9999 6.00303 11.9999C7.40135 11.9999 8.68681 11.5203 9.70695 10.7184C9.66666 9.01326 9.25789 6.60145 8.22823 4.8111C7.82888 5.10791 7.61394 5.57483 7.4 6.29919Z" fill="#F9F9F9"/>
</g>
<defs>
<clipPath id="clip0">
<rect width="12" height="12" fill="white"/>
</clipPath>
</defs>
</svg>
