<svg width="12" height="12" viewBox="0 0 12 12" fill="none" xmlns="http://www.w3.org/2000/svg">
<g clip-path="url(#clip0)">
<path d="M7.59666 4.34892C7.55307 4.30533 7.49286 4.28027 7.43098 4.28027C7.36937 4.28027 7.3089 4.30533 7.2653 4.34892C7.22171 4.39252 7.19666 4.45273 7.19666 4.5146C7.19666 4.57624 7.22173 4.63669 7.2653 4.68026C7.3089 4.72385 7.36934 4.74893 7.43098 4.74893C7.49286 4.74893 7.55307 4.72385 7.59666 4.68026C7.64049 4.63669 7.66531 4.57624 7.66531 4.5146C7.66531 4.4527 7.64049 4.39252 7.59666 4.34892Z" fill="#FCFCFC"/>
<path d="M11.4795 1.70546C11.3673 1.64086 11.2241 1.67939 11.1595 1.79152L10.0966 3.63635C9.9999 3.62414 9.90278 3.62428 9.80743 3.63671C9.80704 3.63678 9.80666 3.63678 9.80626 3.63685C9.74043 3.64552 9.67541 3.65977 9.61218 3.68044L9.48915 3.72061L9.20713 3.79617C9.0636 3.80925 8.90945 3.7751 8.77464 3.69729L7.52521 2.97551C7.36757 2.88446 7.3134 2.68212 7.40441 2.52448L7.63548 2.12424C7.6355 2.12421 7.63553 2.12419 7.63553 2.12414L8.66169 0.351824C8.72652 0.239839 8.68832 0.096472 8.57631 0.0316205C8.46432 -0.0331842 8.32096 0.00499547 8.25611 0.117003L7.34722 1.68678L7.24044 1.62514C6.78299 1.361 3.00149 0.657167 2.24804 0.518792C2.24645 0.518488 2.24486 0.51823 2.24326 0.517949C1.7935 0.445034 1.36768 0.631691 1.15867 0.99373L0.773074 1.6617C0.505301 2.12546 0.688887 2.73835 1.18021 3.05607L1.08805 3.21572C1.0086 3.35335 0.98748 3.51366 1.02861 3.66717C1.06975 3.82069 1.16821 3.94896 1.30583 4.02842L1.35465 4.05661C1.44634 4.10956 1.54806 4.13658 1.65118 4.13658C1.70286 4.13658 1.75487 4.12978 1.80615 4.11603C1.95964 4.07489 2.08794 3.97646 2.16739 3.83883L2.25871 3.68065L2.81068 3.99933C2.06464 4.24826 1.39555 4.71272 0.900082 5.33173C0.781652 5.47969 0.674309 5.6355 0.578145 5.7976C0.57191 5.80653 0.566426 5.81592 0.56148 5.82563C0.28016 6.30849 0.0992695 6.8465 0.0316289 7.40239C0.0303867 7.40986 0.0294961 7.41736 0.0289805 7.42491C0.0108633 7.58056 0.00146484 7.73752 0.00146484 7.89509C0.00146484 8.96079 0.409793 9.93286 1.07807 10.6633C1.08948 10.679 1.10272 10.6934 1.11772 10.7059C1.55242 11.1679 2.09258 11.5295 2.6995 11.7516C2.70908 11.7557 2.71886 11.7592 2.72884 11.7619C3.15964 11.9159 3.62336 12 4.1064 12C4.64486 12 5.15931 11.8956 5.63087 11.7063C5.64306 11.7024 5.65496 11.6976 5.6664 11.6918C6.24505 11.4531 6.75761 11.0859 7.1683 10.6259C7.1825 10.6133 7.19511 10.5991 7.20587 10.5836C7.83189 9.86283 8.21132 8.92242 8.21132 7.89507C8.21132 7.74359 8.20246 7.59139 8.18596 7.44129C8.18568 7.43799 8.18528 7.43471 8.18486 7.43142C8.18263 7.41167 8.18078 7.39184 8.17827 7.37217C8.17799 7.36988 8.17766 7.36763 8.17731 7.36535L8.15038 7.19398L8.21336 7.08488C8.341 7.13004 8.47194 7.15233 8.60007 7.15233C8.95346 7.15233 9.28457 6.98562 9.46058 6.68077L9.84625 6.01278L10.7527 4.44267C10.8809 4.22065 10.7922 3.92862 10.5549 3.79167C10.5532 3.79067 10.5514 3.78978 10.5496 3.78877L11.5656 2.02545C11.6302 1.91335 11.5917 1.77007 11.4795 1.70546ZM5.88132 1.72498L6.07778 2.45825L5.74234 2.40003L5.54132 1.64972C5.6593 1.67541 5.77297 1.70056 5.88132 1.72498ZM4.17236 1.36542L4.3832 2.15234L4.04776 2.09412L3.83453 1.29832C3.94714 1.32057 4.05995 1.34297 4.17236 1.36542ZM1.76143 3.60453C1.74456 3.63375 1.71732 3.65466 1.68477 3.66335C1.65219 3.67212 1.61818 3.66762 1.58896 3.65075L1.54014 3.62255C1.54014 3.62255 1.54014 3.62255 1.54011 3.62255C1.51091 3.60567 1.49 3.57844 1.48131 3.54589C1.47257 3.51331 1.47704 3.47928 1.49392 3.45007L1.58523 3.29187L1.85279 3.44635L1.76143 3.60453ZM2.86639 4.47521L2.33307 5.39979L1.2827 5.59707C1.69054 5.0955 2.23302 4.70307 2.86639 4.47521ZM3.65577 5.29357C3.86153 5.29357 4.06194 5.18686 4.17203 4.99622L4.26334 4.83802L4.805 5.15079C4.99213 5.25884 5.20686 5.29601 5.40957 5.25556C5.50004 5.23749 5.60237 5.25621 5.69031 5.307L6.33833 5.68114C6.55452 5.80596 6.72111 6.00338 6.79541 6.2228C6.81367 6.27673 6.85091 6.32213 6.9002 6.35058L7.12375 6.47965L7.02814 6.64524C6.86411 6.92935 6.96182 7.29394 7.2459 7.45796L7.24593 7.45798L7.29472 7.48613C7.36707 7.52792 7.44468 7.5525 7.52282 7.56157L6.65678 8.43521L5.50168 8.17587L5.37873 7.79745L5.1156 6.98766L5.51582 6.3795C5.58695 6.27141 5.557 6.1261 5.4489 6.05494C5.34086 5.98385 5.1955 6.01376 5.12434 6.12185L4.73164 6.7186H3.482L2.75696 5.60285L3.10832 4.99374C3.15885 5.07204 3.2275 5.13785 3.31051 5.18578L3.35933 5.21396C3.45275 5.26798 3.55489 5.29357 3.65577 5.29357ZM3.49857 4.60746L3.58989 4.44928L3.75306 4.54348L3.85745 4.60376L3.76616 4.76194C3.73133 4.82225 3.65396 4.84299 3.59366 4.80821L3.54484 4.78001C3.54484 4.77999 3.54482 4.77999 3.54479 4.77999C3.51557 4.76311 3.49468 4.73588 3.48597 4.70332C3.47725 4.67077 3.4817 4.63669 3.49857 4.60746ZM5.04461 8.28577L4.5774 8.62521L4.1102 8.96466L3.17579 8.28577L3.5327 7.18728H4.6877L5.04461 8.28577ZM0.915855 6.14283L2.37123 5.86948L3.09737 6.98691L2.71103 8.17589L1.76244 8.38887L1.55727 8.43495L0.509168 7.35865C0.57273 6.92515 0.712371 6.51474 0.915855 6.14283ZM1.09996 9.93823C0.719613 9.38037 0.490254 8.71172 0.47141 7.99156L1.23517 8.77585L1.09996 9.93823ZM1.51323 10.4415L1.69433 8.88448L2.78729 8.63906L2.84061 8.62709L3.86818 9.37369V10.4767L2.7583 11.2722C2.28669 11.0832 1.8636 10.7982 1.51323 10.4415ZM4.10638 11.5313C3.83668 11.5314 3.57386 11.5016 3.3208 11.4456L4.11629 10.8755L5.0046 11.419C4.71721 11.4923 4.41629 11.5313 4.10638 11.5313ZM5.57755 11.2201L4.34453 10.4657V9.37369L5.10102 8.82408L5.37214 8.62711L5.44602 8.64371L6.52567 8.88612L6.76375 10.3744C6.43133 10.7304 6.02847 11.0198 5.57755 11.2201ZM7.15778 9.87061L6.98216 8.77273L7.74076 8.00747C7.71981 8.69274 7.50843 9.33082 7.15778 9.87061ZM7.70155 7.03406C7.66672 7.09437 7.58933 7.11514 7.52898 7.08028L7.48018 7.05214C7.41993 7.01728 7.39918 6.93989 7.43396 6.87959L7.52528 6.72139L7.79284 6.87586L7.70155 7.03406ZM8.2457 6.58627L7.207 5.98657C7.08524 5.69307 6.86277 5.44278 6.57268 5.27529L5.92468 4.90116C5.73686 4.79271 5.52132 4.75533 5.31784 4.796C5.2281 4.814 5.12664 4.79534 5.03938 4.74495L4.29479 4.31508C4.29477 4.31508 4.29477 4.31506 4.29475 4.31506L4.06335 4.18146L2.29028 3.15776C2.29021 3.15771 2.29016 3.15767 2.29009 3.15764L1.61668 2.76884C1.61664 2.76882 1.61657 2.76879 1.61652 2.76877L1.46802 2.68303C1.17805 2.5156 1.04638 2.19209 1.15656 1.94068C1.25558 2.13178 1.4128 2.30161 1.61936 2.42086L5.19079 4.48282C5.37793 4.59087 5.59267 4.62804 5.79538 4.58759C5.88578 4.5694 5.98813 4.58822 6.07609 4.63901L6.72409 5.01314C6.94028 5.13797 7.10687 5.33539 7.18117 5.55481C7.19943 5.60874 7.23667 5.65414 7.28596 5.68259L8.39708 6.32412C8.58095 6.43027 8.78446 6.48521 8.98654 6.48521C9.00111 6.48521 9.01567 6.48471 9.03022 6.48415C8.87193 6.70325 8.53112 6.75108 8.2457 6.58627ZM9.4404 5.77847C9.37311 5.89503 9.25553 5.97528 9.10935 6.0045C8.95194 6.03598 8.78218 6.00535 8.63139 5.91825L7.59268 5.31853C7.4709 5.02503 7.24846 4.77474 6.95837 4.60725L6.31032 4.23312C6.12247 4.12467 5.90696 4.08736 5.7035 4.12798C5.61379 4.146 5.5123 4.12732 5.42504 4.07693L1.85361 2.015C1.54621 1.8375 1.41655 1.48446 1.56463 1.22803C1.67509 1.03671 1.91099 0.939589 2.16601 0.980183C2.51551 1.04438 2.91132 1.11896 3.32254 1.19841L3.63379 2.36004C3.65741 2.44824 3.73009 2.51468 3.82004 2.53029L4.66436 2.67685C4.67772 2.67919 4.69112 2.68029 4.70443 2.68029C4.76961 2.68029 4.83261 2.65306 4.8774 2.60405C4.93136 2.54501 4.95146 2.46256 4.93077 2.38533L4.68533 1.46937C4.80081 1.49307 4.91488 1.51669 5.02672 1.54008L5.32839 2.666C5.35201 2.75419 5.42469 2.82064 5.51464 2.83625L6.35896 2.9828C6.37232 2.98514 6.38572 2.98625 6.39904 2.98625C6.46422 2.98625 6.52722 2.95901 6.572 2.91C6.62596 2.85096 6.64607 2.76851 6.62537 2.69128L6.39911 1.84681C6.71441 1.92495 6.934 1.98938 7.00611 2.031L7.11266 2.0925L6.99854 2.29015C6.77835 2.67153 6.90943 3.16104 7.29079 3.38133L8.3886 4.0155L8.05304 4.10541C7.92805 4.13892 7.85387 4.26741 7.88734 4.3924C7.91539 4.4971 8.01006 4.56617 8.11353 4.56617C8.1336 4.56617 8.15404 4.56357 8.17433 4.5581L9.29403 4.25808C9.35898 4.24934 9.42313 4.23516 9.48557 4.21475L9.62237 4.17007L9.88529 4.09962C10.0296 4.08537 10.1849 4.11924 10.3206 4.19759C10.3326 4.20455 10.3387 4.21273 10.3414 4.21786L9.4404 5.77847Z" fill="#FCFCFC"/>
<path d="M11.9301 1.04469C11.8865 1.00109 11.8261 0.976013 11.7644 0.976013C11.7028 0.976013 11.6424 1.00109 11.5988 1.04469C11.5552 1.08826 11.5301 1.1487 11.5301 1.21034C11.5301 1.27222 11.5552 1.33243 11.5988 1.37602C11.6424 1.41961 11.7028 1.44467 11.7644 1.44467C11.8261 1.44467 11.8865 1.41961 11.9301 1.37602C11.9737 1.3324 11.9988 1.27201 11.9988 1.21034C11.9988 1.14872 11.9737 1.08826 11.9301 1.04469Z" fill="#FCFCFC"/>
</g>
<defs>
<clipPath id="clip0">
<rect width="12" height="12" fill="white"/>
</clipPath>
</defs>
</svg>
