<svg width="12" height="12" viewBox="0 0 12 12" fill="none" xmlns="http://www.w3.org/2000/svg">
<g clip-path="url(#clip0)">
<path d="M7.19121 9.88343C6.62804 10.5763 5.76594 11.0188 4.79339 11.0188C3.09634 11.0188 1.73817 9.63162 1.73817 7.94399C1.73817 6.94468 2.27985 6.05733 3.00474 5.49642V4.44434C1.77813 5.11004 0.82782 6.41468 0.82782 7.92967C0.82782 10.1168 2.60554 11.925 4.80508 11.925C6.22507 11.925 7.45696 11.1458 8.15848 10.067C8.10683 9.94939 8.04878 9.83555 7.99224 9.72058C7.72611 9.7824 7.4596 9.83631 7.19121 9.88343Z" fill="#FBFAFA"/>
<path d="M4.93402 2.8234C5.71806 2.8234 6.35364 2.19136 6.35364 1.4117C6.35364 0.632039 5.71806 0 4.93402 0C4.14999 0 3.5144 0.632039 3.5144 1.4117C3.5144 2.19136 4.14999 2.8234 4.93402 2.8234Z" fill="#FBFAFA"/>
<path d="M11.0979 10.7323L9.61538 7.30238C9.44161 6.90092 9.00509 6.68078 8.578 6.77765L5.59214 7.46522L5.58875 4.25469C5.588 3.75334 5.18164 3.33868 4.68067 3.33868C4.68067 3.33868 4.67991 3.33868 4.67954 3.33868C4.17819 3.33868 3.77258 3.75522 3.77258 4.25619L3.77711 8.60212C3.77711 8.87805 3.90376 9.1423 4.12014 9.31419C4.33651 9.48646 4.61998 9.55243 4.88837 9.48985L8.2493 8.71634L9.43105 11.4519C9.57995 11.7949 9.91393 12 10.2653 12C10.3851 12 10.508 11.9766 10.6252 11.9254C11.0851 11.7267 11.2962 11.1922 11.0979 10.7323Z" fill="#FBFAFA"/>
</g>
<defs>
<clipPath id="clip0">
<rect width="12" height="12" fill="white"/>
</clipPath>
</defs>
</svg>
