<svg width="12" height="12" viewBox="0 0 12 12" fill="none" xmlns="http://www.w3.org/2000/svg">
<g clip-path="url(#clip0)">
<path d="M11.9852 8.7809C11.9738 8.76759 11.9569 8.7597 11.9391 8.7597H0.0608785C0.0431345 8.7597 0.0263763 8.76747 0.0147934 8.7809C0.00321048 8.79421 -0.00196485 8.81207 0.000622816 8.82969C0.00234793 8.84078 0.181513 9.94067 1.57208 9.94067H10.4279C11.8184 9.94067 11.9975 8.84078 11.9994 8.82969C12.0019 8.81207 11.9967 8.79421 11.9852 8.7809ZM6.89331 9.55547H5.10658V9.14465H6.89331V9.55547Z" fill="#FDFAFA"/>
<path d="M1.29471 8.33214H10.7052C10.8412 8.33214 10.9516 8.22173 10.9516 8.0857V2.30583C10.9516 2.16979 10.8412 2.05939 10.7052 2.05939H1.29471C1.15867 2.05939 1.04826 2.16979 1.04826 2.30583V8.0857C1.04826 8.22173 1.15867 8.33214 1.29471 8.33214ZM1.91082 2.92194H10.0891V7.46958H1.91082V2.92194Z" fill="#FDFAFA"/>
</g>
<defs>
<clipPath id="clip0">
<rect width="12" height="12" fill="white"/>
</clipPath>
</defs>
</svg>
