<svg width="12" height="12" viewBox="0 0 12 12" fill="none" xmlns="http://www.w3.org/2000/svg">
<g clip-path="url(#clip0)">
<path d="M3.25001 8.50006H2.25V9.00005H3.25001V8.50006Z" fill="white"/>
<path d="M3.75 9.49994H2.25V9.99993H3.75V9.49994Z" fill="white"/>
<path d="M11.7751 10.6908L9.00006 7.91543V1.75001C9.00006 1.3358 8.66427 1.00001 8.25006 1.00001H3.225C3.10918 0.429445 2.60478 0 2.00004 0C1.39531 0 0.890932 0.429445 0.775103 1.00001H0.750049C0.335837 1.00001 4.76837e-05 1.3358 4.76837e-05 1.75001V11.25C4.76837e-05 11.6642 0.335837 12 0.750049 12H8.25006C8.66427 12 9.00006 11.6642 9.00006 11.25V10.0845L10.6908 11.775C10.8344 11.9193 11.0297 12.0003 11.2333 12C11.4368 12 11.6319 11.9191 11.7757 11.7751C12.075 11.4755 12.0747 10.99 11.7751 10.6908ZM2.00004 0.499992C2.32657 0.499992 2.60421 0.708727 2.7072 0.999984H1.29291C1.39587 0.708727 1.67351 0.499992 2.00004 0.499992ZM8.50007 11.25C8.50007 11.3881 8.38813 11.5 8.25006 11.5H0.750049C0.611978 11.5 0.50004 11.3881 0.50004 11.25V1.75001C0.50004 1.61194 0.611978 1.5 0.750049 1.5H2.75004V4.24999C2.75004 4.38806 2.63811 4.5 2.50004 4.5C2.36196 4.5 2.25003 4.38806 2.25003 4.24999V1.99999H1.75006V4.24999C1.75006 4.6642 2.08585 4.99999 2.50006 4.99999C2.91427 4.99999 3.25006 4.6642 3.25006 4.24999V1.5H8.25006C8.38813 1.5 8.50007 1.61194 8.50007 1.75001V7.41539L7.75006 6.6653V2.25C7.75006 2.11193 7.63813 1.99999 7.50006 1.99999H3.75005V2.49998H7.25005V6.21984L5.8618 5.52727C5.79132 5.49195 5.7083 5.49195 5.63783 5.52727C5.62442 5.53397 5.61207 5.54191 5.60044 5.55056L5.60005 5.55002L4.89055 6.08152L4.49054 4.68152C4.47887 4.64058 4.45695 4.60329 4.42683 4.5732C4.32917 4.47558 4.1709 4.47563 4.07328 4.57327L3.39654 5.25H1.50005C1.36198 5.25 1.25004 5.36194 1.25004 5.50001V10.75C1.25004 10.8881 1.36198 11 1.50005 11H7.50006C7.63813 11 7.75006 10.8881 7.75006 10.75V8.8346L8.50007 9.58451V11.25ZM6.54955 6.79027L6.30856 6.30874L6.79023 6.54959L6.54955 6.79027ZM7.25005 8.33463V10.5H1.75006V5.74999H3.50007C3.56621 5.75004 3.62968 5.72388 3.67658 5.67724L4.12658 5.22724L4.50957 6.5685C4.51796 6.59794 4.53167 6.62562 4.55005 6.65009C4.63292 6.76052 4.78962 6.78286 4.90006 6.69998L5.65995 6.13008L6.2573 7.32499L6.25794 7.32469C6.26961 7.34787 6.28496 7.36964 6.3043 7.389L7.25005 8.33463ZM6.83455 7.21226L7.21229 6.83452L10.5148 10.137L10.1371 10.5148L6.83455 7.21226ZM11.4221 11.422C11.3177 11.5263 11.1486 11.5263 11.0443 11.422L10.4906 10.8683L10.8684 10.4906L11.422 11.0442C11.5264 11.1486 11.5264 11.3177 11.4221 11.422Z" fill="white"/>
</g>
<defs>
<clipPath id="clip0">
<rect width="12" height="12" fill="white"/>
</clipPath>
</defs>
</svg>
