<svg width="12" height="12" viewBox="0 0 12 12" fill="none" xmlns="http://www.w3.org/2000/svg">
<path d="M6 0C2.69156 0 0 2.69156 0 6C0 9.30844 2.69156 12 6 12C9.30844 12 12 9.30844 12 6C12 2.69156 9.30844 0 6 0ZM9.57614 9.90381C8.48053 8.90002 7.85779 7.4935 7.85779 6C7.85779 4.5065 8.48053 3.09998 9.57614 2.0961C9.77353 2.2771 9.95709 2.47293 10.1253 2.68158C9.19052 3.53302 8.66098 4.72394 8.66098 6C8.66098 7.27606 9.19052 8.46707 10.1253 9.31842C9.95709 9.52707 9.77353 9.7229 9.57614 9.90381ZM9.36401 6C9.36401 4.95438 9.78616 3.97659 10.5334 3.26303C11.0178 4.06229 11.2969 4.99915 11.2969 6C11.2969 7.00076 11.0178 7.93762 10.5335 8.73688C9.78616 8.02332 9.36401 7.04562 9.36401 6ZM4.14221 6C4.14221 7.4935 3.51947 8.90002 2.42386 9.90381C2.22647 9.7229 2.04291 9.52707 1.87473 9.31842C2.80948 8.46698 3.33911 7.27606 3.33911 6C3.33911 4.72394 2.80948 3.53293 1.87473 2.68158C2.04291 2.47293 2.22647 2.2771 2.42386 2.0961C3.51956 3.09998 4.14221 4.5065 4.14221 6ZM1.46658 3.26303C2.21384 3.9765 2.63599 4.95438 2.63599 6C2.63599 7.04562 2.21384 8.0235 1.46658 8.73697C0.982269 7.93771 0.703125 7.00085 0.703125 6C0.703125 4.99915 0.982269 4.06229 1.46658 3.26303ZM2.97812 10.3477C4.16968 9.21625 4.84534 7.65546 4.84534 6C4.84534 4.34454 4.16968 2.78375 2.97812 1.65225C3.83569 1.05432 4.87756 0.703125 6 0.703125C7.12262 0.703125 8.16458 1.0545 9.02234 1.65253C7.83069 2.78403 7.15466 4.34454 7.15466 6C7.15466 7.65546 7.83041 9.21625 9.02197 10.3477C8.16431 10.9456 7.12253 11.2969 6 11.2969C4.87756 11.2969 3.83569 10.9457 2.97812 10.3477Z" fill="#FDFDFD"/>
</svg>
