<svg width="14" height="14" viewBox="0 0 14 14" fill="none" xmlns="http://www.w3.org/2000/svg">
<g clip-path="url(#clip0)">
<path d="M4.91665 10.976L2.82801 12.1153C2.70544 12.1821 2.59529 12.2643 2.4928 12.3538C3.71053 13.3806 5.2825 14 7.00001 14C8.70484 14 10.2668 13.3898 11.4811 12.377C11.3691 12.2825 11.2476 12.1974 11.1128 12.1303L8.87627 11.0122C8.58729 10.8677 8.40476 10.5724 8.40476 10.2493V9.3718C8.46763 9.30022 8.53948 9.2083 8.61634 9.09973C8.92118 8.66916 9.15178 8.19554 9.31159 7.69867C9.59846 7.61018 9.80978 7.34524 9.80978 7.03037V6.09369C9.80978 5.88765 9.71812 5.70354 9.57574 5.57463V4.2206C9.57574 4.2206 9.85389 2.11346 7.00027 2.11346C4.14665 2.11346 4.4248 4.2206 4.4248 4.2206V5.57463C4.28216 5.70354 4.19076 5.88765 4.19076 6.09369V7.03037C4.19076 7.27709 4.32046 7.49422 4.51461 7.61969C4.74865 8.63852 5.36148 9.3718 5.36148 9.3718V10.2277C5.36121 10.5394 5.19057 10.8265 4.91665 10.976Z" fill="#E7ECED"/>
<path d="M7.11969 0.00110342C3.25437 -0.0649343 0.0671266 3.01507 0.00108885 6.88039C-0.0364206 9.07205 0.94041 11.0418 2.49573 12.3517C2.59743 12.263 2.70652 12.1816 2.82777 12.1156L4.91641 10.9763C5.19033 10.8268 5.36098 10.5397 5.36098 10.2274V9.37159C5.36098 9.37159 4.74788 8.63831 4.51411 7.61948C4.32022 7.49401 4.19026 7.27714 4.19026 7.03016V6.09348C4.19026 5.88744 4.28192 5.70333 4.4243 5.57442V4.22039C4.4243 4.22039 4.14615 2.11325 6.99977 2.11325C9.85339 2.11325 9.57524 4.22039 9.57524 4.22039V5.57442C9.71788 5.70333 9.80928 5.88744 9.80928 6.09348V7.03016C9.80928 7.34503 9.59796 7.60997 9.31109 7.69846C9.15128 8.19533 8.92068 8.66895 8.61585 9.09952C8.53898 9.20808 8.46713 9.30001 8.40426 9.37159V10.2491C8.40426 10.5722 8.58679 10.8677 8.87577 11.012L11.1123 12.1301C11.2465 12.1972 11.3678 12.282 11.4795 12.3763C12.9878 11.1184 13.9623 9.23767 13.9984 7.11971C14.065 3.25439 10.9853 0.0671411 7.11969 0.00110342Z" fill="#556080"/>
</g>
<defs>
<clipPath id="clip0">
<rect width="14" height="14" fill="white"/>
</clipPath>
</defs>
</svg>
